<svg id="Icons" xmlns="http://www.w3.org/2000/svg" xmlns:xlink="http://www.w3.org/1999/xlink" viewBox="0 0 128 128"><defs><style>.cls-1{fill:url(#FedEx_Gradient);}</style><linearGradient id="FedEx_Gradient" y1="63.5" x2="128" y2="63.5" gradientUnits="userSpaceOnUse"><stop offset="0" stop-color="#4d148c"/><stop offset="0.33" stop-color="#7d22c3"/><stop offset="1" stop-color="#ff6200"/></linearGradient></defs><path class="cls-1" d="M56,67.5A1.5,1.5,0,0,1,57.5,66h13a1.5,1.5,0,0,1,0,3h-13A1.5,1.5,0,0,1,56,67.5Zm72,5c0,1.476-.6,2.642-1.914,2.968-1.085.3-16.8,4.545-32.8,8.016a8.506,8.506,0,1,1-11.915,2.4A109.078,109.078,0,0,1,64,88a109.091,109.091,0,0,1-17.374-2.118,8.5,8.5,0,1,1-11.915-2.4c-16-3.471-31.725-7.724-32.83-8.024C.6,75.142,0,73.969,0,72.5c0-1.361,1.417-2.12,2.773-1.987l45.748,4.34A18.974,18.974,0,0,1,48,70.5c0-.286.027-.566.039-.849L31.1,64.945a1.5,1.5,0,0,1,.8-2.89l16.475,4.576a18.487,18.487,0,0,1,9.633-13.223c0-.026,0-.051,0-.077L60.5,31.39a3.5,3.5,0,0,1,6.994,0L69.99,53.331c0,.026,0,.051,0,.077a18.487,18.487,0,0,1,9.633,13.223L96.1,62.055a1.5,1.5,0,0,1,.8,2.89l-16.94,4.706c.012.283.039.563.039.849a18.974,18.974,0,0,1-.521,4.353l45.753-4.34C126.578,70.372,128,71.138,128,72.5Zm-83,18A5.5,5.5,0,1,0,39.5,96,5.506,5.506,0,0,0,45,90.5Zm49,0A5.5,5.5,0,1,0,88.5,96,5.506,5.506,0,0,0,94,90.5ZM61.143,52.325a12.72,12.72,0,0,1,5.714,0L64.51,31.669a1.341,1.341,0,0,1-.01-.168c-.039-.126-.344-.5-.5-.5s-.458.357-.506.58ZM51,70.5c0,8,5.832,14.5,13,14.5s13-6.5,13-14.5C77,62.243,70.925,55,64,55S51,62.243,51,70.5Zm2.888,13.547a17.47,17.47,0,0,1-4.338-6.083L8.313,74.052C18.322,76.644,39.407,81.9,53.888,84.047Zm65.8-9.995L78.45,77.964a17.47,17.47,0,0,1-4.338,6.083C88.6,81.9,109.7,76.64,119.687,74.052ZM88.5,88.5a2,2,0,1,0,2,2A2,2,0,0,0,88.5,88.5Zm-49,0a2,2,0,1,0,2,2A2,2,0,0,0,39.5,88.5Z"/></svg>
